<?xml version="1.0" standalone="no"?>
<!DOCTYPE svg PUBLIC "-//W3C//DTD SVG 20010904//EN"
 "http://www.w3.org/TR/2001/REC-SVG-20010904/DTD/svg10.dtd">
<svg version="1.0" xmlns="http://www.w3.org/2000/svg"
 width="124.000000pt" height="124.000000pt" viewBox="0 0 124.000000 124.000000"
 preserveAspectRatio="xMidYMid meet">
<metadata>
Created by potrace 1.14, written by Peter Selinger 2001-2017
</metadata>
<g transform="translate(0.000000,124.000000) scale(0.100000,-0.100000)"
fill="#000000" stroke="none">
<path d="M440 1221 c-158 -50 -306 -174 -374 -312 -52 -106 -66 -167 -66 -296
0 -92 4 -126 25 -191 58 -185 202 -331 392 -397 57 -21 87 -25 183 -25 72 0
138 6 174 15 203 53 368 218 445 443 48 141 9 359 -90 507 -85 126 -198 210
-343 254 -89 27 -264 29 -346 2z"/>
</g>
</svg>
